{
	"asset":{
		"version":"2.0",
		"generator":""
	},
	"nodes":[{
		"name":"Default",
		"mesh":0
	}],
	"scenes":[{
		"nodes":[0]
	}],
	"meshes":[{
		"name":"Default",
		"primitives":[{
			"attributes":{
				"POSITION":1,
				"NORMAL":2,
				"TEXCOORD_0":3,
				"COLOR_0":4
			},
			"indices":0,
			"material":0
		}]
	}],
	"accessors":[{
		"bufferView":0,
		"type":"SCALAR",
		"componentType":5123,
		"count":72876,
		"byteOffset":0,
		"min":[0],
		"max":[19819]
	},
	{
		"bufferView":1,
		"type":"VEC3",
		"componentType":5126,
		"count":19820,
		"byteOffset":0,
		"min":[-0.28008729219436648,
		1.598344087600708,
		-0.13065342605113984],
		"max":[0.2799097001552582,
		2.4122512340545656,
		0.05968255177140236]
	},
	{
		"bufferView":1,
		"type":"VEC3",
		"componentType":5126,
		"count":19820,
		"byteOffset":12,
		"min":[-1.0,
		-1.0,
		-1.0],
		"max":[1.0,
		0.9998802542686462,
		1.0]
	},
	{
		"bufferView":1,
		"type":"VEC2",
		"componentType":5126,
		"count":19820,
		"byteOffset":24,
		"min":[-100000.0,
		-1033.07666015625],
		"max":[100000.0,
		3.005539894104004]
	},
	{
		"bufferView":2,
		"type":"VEC4",
		"componentType":5126,
		"count":19820,
		"byteOffset":0,
		"min":[0.2078431397676468,
		0.18431372940540315,
		0.18431372940540315,
		0.0],
		"max":[0.8509804010391235,
		0.729411780834198,
		0.7215686440467835,
		0.0]
	}],
	"bufferViews":[{
		"buffer":0,
		"byteOffset":0,
		"byteLength":145752,
		"target":34963
	},
	{
		"buffer":0,
		"byteOffset":145752,
		"byteLength":634240,
		"target":34962,
		"byteStride":32
	},
	{
		"buffer":0,
		"byteOffset":779992,
		"byteLength":317120,
		"target":34962
	}],
	"buffers":[{
		"uri":"data:application/octet-stream;base64,",
		"byteLength":1097112
	}],
	"materials":[{
		"pbrMetallicRoughness":{
			"baseColorFactor":[1.0,
			1.0,
			1.0,
			1.0],
			"metallicFactor":0.0,
			"roughnessFactor":0.5
		},
		"emissiveFactor":[0.0,
		0.0,
		0.0],
		"alphaMode":"OPAQUE",
		"doubleSided":false,
		"name":"defaultMat"
	}]
}